<?xml version="1.0" standalone="no"?>
<!DOCTYPE svg PUBLIC "-//W3C//DTD SVG 20010904//EN"
 "http://www.w3.org/TR/2001/REC-SVG-20010904/DTD/svg10.dtd">
<svg version="1.0" xmlns="http://www.w3.org/2000/svg"
 width="207.000000pt" height="207.000000pt" viewBox="0 0 207.000000 207.000000"
 preserveAspectRatio="xMidYMid meet">
<metadata>
Created by potrace 1.14, written by Peter Selinger 2001-2017
</metadata>
<g transform="translate(0.000000,207.000000) scale(0.100000,-0.100000)"
fill="#000000" stroke="none">
<path d="M160 1530 c-8 -4 -41 -7 -73 -6 -31 0 -57 -2 -57 -6 0 -4 -7 -5 -15
-2 -20 8 -19 1 3 -36 10 -16 22 -27 25 -23 4 3 7 -1 7 -11 0 -9 5 -14 10 -11
6 3 10 -1 10 -9 0 -8 8 -20 18 -25 9 -6 14 -11 10 -11 -9 0 16 -33 50 -65 12
-12 22 -27 22 -33 0 -5 7 -13 16 -16 9 -4 14 -9 11 -12 -3 -3 12 -23 33 -44
21 -21 36 -40 34 -42 -2 -3 12 -21 31 -41 19 -20 35 -41 35 -46 0 -5 3 -11 8
-13 4 -1 16 -14 27 -28 20 -24 55 -37 55 -19 0 5 5 9 11 9 7 0 22 11 34 24 13
14 26 22 30 18 4 -4 6 10 3 30 -2 21 1 40 7 42 5 2 4 5 -3 5 -10 1 -10 6 -2
21 6 11 15 18 20 15 6 -3 7 1 4 9 -3 9 -1 16 6 16 22 0 37 25 29 48 -5 12 -13
22 -19 22 -5 0 -9 3 -9 8 3 20 -3 31 -21 37 -11 4 -18 11 -15 16 4 5 -1 12 -9
15 -9 3 -16 12 -16 20 0 8 -7 14 -16 14 -8 0 -12 5 -9 10 12 20 -28 10 -46
-12 -11 -11 -19 -16 -19 -10 0 7 -3 11 -7 11 -20 -3 -34 2 -29 10 4 5 0 11 -6
14 -10 3 -10 7 -1 19 7 8 10 17 7 21 -3 3 4 11 16 17 l21 11 -20 18 c-12 10
-32 17 -46 16 -14 -2 -25 0 -25 5 0 4 -11 7 -24 6 -13 0 -22 -4 -19 -8 2 -5 0
-8 -6 -8 -5 0 -12 6 -14 13 -4 9 -8 9 -15 -2 -8 -11 -14 -12 -24 -4 -8 7 -19
8 -28 3z"/>
<path d="M1554 1532 c3 -5 -15 -8 -40 -7 -25 0 -47 -2 -49 -5 -2 -4 -19 -5
-37 -4 -18 1 -38 -2 -45 -8 -7 -5 -17 -7 -23 -3 -6 4 -9 1 -8 -6 2 -7 -3 -13
-10 -14 -7 0 -17 -7 -22 -15 -5 -8 -10 -11 -10 -7 0 10 -65 -34 -110 -75 -10
-9 -20 -16 -22 -15 -1 1 -21 -16 -43 -37 -22 -21 -34 -35 -26 -31 9 5 12 4 7
-3 -4 -7 -14 -12 -22 -12 -8 0 -13 -3 -13 -7 3 -19 -2 -34 -9 -29 -10 6 -55
-81 -69 -134 -2 -8 -6 -35 -9 -60 -4 -33 -3 -41 5 -30 10 13 11 13 11 0 1 -12
2 -12 10 2 15 24 74 83 82 80 4 -1 10 7 13 18 4 11 10 20 15 20 5 0 18 16 30
35 12 19 26 33 31 29 5 -3 14 7 19 21 5 14 14 23 20 20 5 -3 10 0 10 7 0 7 16
24 34 38 19 14 41 36 50 50 35 56 54 72 73 61 11 -6 13 -11 5 -11 -7 0 -10 -4
-7 -10 3 -5 -1 -10 -9 -10 -9 0 -18 -11 -22 -25 -3 -14 -10 -25 -15 -25 -5 0
-9 -6 -9 -13 0 -7 -8 -22 -17 -33 -10 -11 -19 -26 -21 -34 -2 -8 -12 -23 -23
-32 -11 -9 -21 -21 -22 -25 -1 -4 -5 -7 -9 -5 -5 1 -8 -9 -8 -23 0 -14 -5 -25
-11 -25 -5 0 -8 -3 -6 -7 7 -11 -19 -33 -28 -25 -4 4 0 -5 10 -20 22 -35 35
-36 35 -2 0 14 4 23 9 20 5 -3 12 5 15 19 4 14 11 25 16 25 6 0 10 7 10 15 0
8 3 15 8 15 4 0 23 15 42 33 42 40 76 60 110 65 13 2 31 8 38 15 8 6 16 7 20
1 8 -11 32 -11 50 -1 6 5 12 4 12 0 0 -5 13 -9 30 -9 20 -1 27 2 23 10 -5 8
-3 8 8 0 16 -12 363 -13 389 -1 9 4 16 15 17 25 2 31 8 47 18 54 6 5 5 8 -3 8
-10 0 -10 5 -2 20 6 10 10 23 9 27 -1 4 -1 10 1 13 7 19 10 59 5 78 -6 25 -42
30 -64 10 -9 -9 -12 -9 -7 -1 8 15 -185 13 -196 -2 -5 -6 -8 -5 -8 3 0 6 -5
12 -11 12 -5 0 -7 -6 -3 -12 6 -10 4 -10 -8 0 -10 8 -19 9 -22 3 -7 -10 -31
-9 -42 2 -4 3 -15 2 -25 -4 -13 -7 -19 -6 -19 1 0 6 -5 8 -10 5 -17 -11 -80
-14 -80 -4 0 5 -5 9 -11 9 -5 0 -8 -4 -5 -8z m321 -121 c-3 -6 -11 -11 -16
-11 -5 0 -4 6 3 14 14 16 24 13 13 -3z"/>
<path d="M747 1515 c-4 -8 -3 -16 1 -19 4 -3 9 4 9 15 2 23 -3 25 -10 4z"/>
<path d="M836 1522 c-11 -10 -6 -33 5 -26 21 13 -10 -34 -36 -54 -13 -11 -22
-22 -19 -25 3 -3 -4 -10 -15 -17 -12 -6 -19 -15 -16 -21 4 -5 1 -9 -6 -9 -7 0
-6 -8 5 -25 11 -17 13 -25 5 -25 -7 0 -10 -3 -7 -6 3 -3 -9 -22 -28 -42 -19
-20 -37 -47 -40 -59 -4 -13 -10 -23 -15 -23 -5 0 -6 -6 -3 -14 4 -11 -2 -14
-29 -12 -23 2 -34 -1 -34 -11 0 -7 4 -13 8 -13 14 0 17 -41 3 -47 -8 -3 -14
-9 -14 -14 0 -13 -66 -79 -79 -79 -6 0 -11 -7 -11 -15 0 -8 -7 -15 -15 -15 -8
0 -15 -5 -15 -10 0 -18 37 -83 64 -115 14 -16 26 -33 26 -36 0 -4 18 -26 40
-50 22 -24 40 -50 40 -58 0 -8 3 -11 7 -8 5 6 30 -20 31 -33 1 -8 108 -120
115 -120 4 0 7 18 7 41 0 22 4 38 8 35 5 -3 9 1 9 9 0 8 -5 11 -10 8 -6 -4 -7
-1 -1 8 9 15 12 29 16 67 1 12 5 22 8 22 3 0 6 12 6 28 2 26 7 57 18 112 2 14
7 41 10 60 3 19 9 49 12 65 4 17 7 44 8 60 0 17 8 36 16 43 8 8 9 11 3 7 -14
-7 -18 11 -5 19 5 3 8 15 7 28 -1 13 2 29 8 36 6 8 5 12 -4 12 -10 0 -11 2 -2
8 6 4 14 27 17 52 2 25 5 45 7 45 3 0 8 46 10 87 1 23 -5 43 -15 53 -9 9 -13
22 -9 28 3 7 3 9 -2 5 -4 -4 -16 3 -26 16 -18 24 -53 39 -63 28z"/>
<path d="M948 1504 c3 -20 7 -22 23 -13 11 5 19 12 19 15 0 3 -4 2 -10 -1 -5
-3 -10 -2 -10 3 0 6 -6 12 -13 15 -10 4 -13 -2 -9 -19z"/>
<path d="M1207 993 c4 -11 3 -14 -5 -9 -7 4 -12 1 -12 -7 0 -8 -6 -20 -14 -26
-15 -13 -18 -51 -4 -51 4 0 -12 -21 -37 -47 -24 -26 -41 -50 -39 -53 3 -2 9 1
13 8 8 13 41 6 41 -9 0 -5 -9 -18 -20 -29 -22 -22 -26 -40 -9 -40 6 0 1 -15
-11 -34 -13 -22 -17 -37 -10 -41 5 -3 10 -3 11 2 0 4 4 0 8 -11 4 -10 26 -29
49 -41 23 -12 40 -24 37 -27 -2 -2 8 -4 23 -3 15 0 29 -3 32 -7 3 -3 17 -8 30
-10 14 -2 31 -7 39 -12 11 -7 12 -6 6 5 -7 12 -6 12 7 1 12 -9 79 -12 284 -10
231 3 269 5 269 18 1 8 6 24 12 35 6 11 9 28 8 37 -2 10 1 20 6 24 5 3 9 20 9
37 0 18 4 38 9 46 18 29 -15 46 -84 45 -36 -1 -68 2 -71 8 -3 5 -12 4 -20 -3
-11 -9 -14 -9 -14 1 0 10 -3 10 -15 0 -12 -10 -15 -10 -15 0 0 10 -3 10 -15 0
-11 -9 -15 -9 -15 -1 0 7 -5 9 -12 4 -21 -12 -69 -13 -62 -1 5 7 2 8 -7 2 -24
-15 -195 -15 -225 1 -15 8 -31 12 -36 9 -4 -3 -8 0 -8 5 0 6 -6 11 -12 11 -15
0 -76 50 -62 50 5 0 1 5 -9 11 -9 6 -15 14 -12 19 3 5 1 11 -4 15 -6 3 -7 13
-4 22 4 10 2 14 -4 10 -7 -5 -9 0 -6 13 3 11 10 17 17 13 6 -3 2 3 -8 15 -23
26 -38 29 -29 5z"/>
</g>
</svg>
